<?xml version="1.0" encoding="UTF-8" standalone="no"?>
<!DOCTYPE svg PUBLIC "-//W3C//DTD SVG 1.1//EN"
 "http://www.w3.org/Graphics/SVG/1.1/DTD/svg11.dtd">
<!-- Generated by graphviz version 2.43.0 (0)
 -->
<!-- Title: %3 Pages: 1 -->
<svg width="531pt" height="240pt"
 viewBox="0.00 0.00 531.00 239.74" xmlns="http://www.w3.org/2000/svg" xmlns:xlink="http://www.w3.org/1999/xlink">
<g id="graph0" class="graph" transform="scale(1 1) rotate(0) translate(36 203.74)">
<title>%3</title>
<polygon fill="dimgray" stroke="transparent" points="-36,36 -36,-203.74 495,-203.74 495,36 -36,36"/>
<text text-anchor="middle" x="229.5" y="-152.54" font-family="Helvetica,sans-Serif" font-size="14.00">Sweep&#39;s Plan &amp; Progress</text>
<!-- start -->
<g id="node1" class="node">
<title>start</title>
</g>
<!-- 198a9ddf&#45;6081&#45;4f26&#45;8377&#45;8807199569ce -->
<g id="node3" class="node">
<title>198a9ddf&#45;6081&#45;4f26&#45;8377&#45;8807199569ce</title>
<ellipse fill="#0ee832" stroke="black" cx="226.5" cy="-101.87" rx="173.9" ry="26.74"/>
<text text-anchor="middle" x="226.5" y="-105.67" font-family="Helvetica,sans-Serif" font-size="14.00">✓ Modify</text>
<text text-anchor="middle" x="226.5" y="-90.67" font-family="Helvetica,sans-Serif" font-size="14.00">.github/workflows/npm&#45;build.yml</text>
</g>
<!-- start&#45;&gt;198a9ddf&#45;6081&#45;4f26&#45;8377&#45;8807199569ce -->
<g id="edge2" class="edge">
<title>start&#45;&gt;198a9ddf&#45;6081&#45;4f26&#45;8377&#45;8807199569ce</title>
<path fill="none" stroke="black" d="M1.15,-101.87C4.47,-101.87 20.32,-101.87 42.2,-101.87"/>
<polygon fill="black" stroke="black" points="42.29,-105.37 52.29,-101.87 42.29,-98.37 42.29,-105.37"/>
<text text-anchor="middle" x="26.78" y="-108.67" font-family="Helvetica,sans-Serif" font-size="14.00">Start</text>
</g>
<!-- end -->
<g id="node2" class="node">
<title>end</title>
</g>
<!-- 198a9ddf&#45;6081&#45;4f26&#45;8377&#45;8807199569ce&#45;&gt;end -->
<g id="edge3" class="edge">
<title>198a9ddf&#45;6081&#45;4f26&#45;8377&#45;8807199569ce&#45;&gt;end</title>
<path fill="none" stroke="black" d="M400.56,-101.87C420.57,-101.87 437.48,-101.87 447.78,-101.87"/>
<polygon fill="black" stroke="black" points="447.86,-105.37 457.86,-101.87 447.86,-98.37 447.86,-105.37"/>
<text text-anchor="middle" x="429.22" y="-108.67" font-family="Helvetica,sans-Serif" font-size="14.00">Finish</text>
</g>
<!-- d9756879&#45;129d&#45;45f3&#45;8e34&#45;044a12ac32f8 -->
<g id="node4" class="node">
<title>d9756879&#45;129d&#45;45f3&#45;8e34&#45;044a12ac32f8</title>
<polygon fill="yellow" stroke="black" points="349.5,-38 103.5,-38 103.5,0 349.5,0 349.5,-38"/>
<text text-anchor="middle" x="226.5" y="-22.8" font-family="Helvetica,sans-Serif" font-size="14.00">⋯ Check</text>
<text text-anchor="middle" x="226.5" y="-7.8" font-family="Helvetica,sans-Serif" font-size="14.00">.github/workflows/npm&#45;build.yml</text>
</g>
<!-- 198a9ddf&#45;6081&#45;4f26&#45;8377&#45;8807199569ce&#45;&gt;d9756879&#45;129d&#45;45f3&#45;8e34&#45;044a12ac32f8 -->
<g id="edge1" class="edge">
<title>198a9ddf&#45;6081&#45;4f26&#45;8377&#45;8807199569ce&#45;&gt;d9756879&#45;129d&#45;45f3&#45;8e34&#45;044a12ac32f8</title>
<path fill="none" stroke="black" stroke-dasharray="5,2" d="M226.5,-74.84C226.5,-66.3 226.5,-56.78 226.5,-48.1"/>
<polygon fill="black" stroke="black" points="230,-48.05 226.5,-38.05 223,-48.05 230,-48.05"/>
</g>
</g>
</svg>
